# xmcd CD database file generated by OrangeCD 5.1
#
# Track frame offsets:
#	150
#	17674
#	32689
#	51010
#	65370
#	84340
#	102608
#	113651
#	132679
#	148795
#	170357
#	184068
#	195114
#
# Disc length: 2834 seconds
#
# Revision: 0
# Processed by: cddbd v1.5.1PL0 Copyright (c) Steve Scherf et al.
# Submitted via: OrangeCD 5.1
#
DISCID=ac0b100d
DTITLE=Michael Kelly - Aliens In My Bathtub
DYEAR=1900
DGENRE=
TTITLE0=Hello Cleveland
TTITLE1=Crazy
TTITLE2=Taking A Shot
TTITLE3=70 Virgins
TTITLE4=Dead Inside
TTITLE5=In Time
TTITLE6=Rode Hard
TTITLE7=Under Cover
TTITLE8=Tom and Huck
TTITLE9=Clear The Channel
TTITLE10=I Never Wrote You A Love Song
TTITLE11=Northern Lights
TTITLE12=The Great Divide
EXTD=
EXTT0=
EXTT1=
EXTT2=
EXTT3=
EXTT4=
EXTT5=
EXTT6=
EXTT7=
EXTT8=
EXTT9=
EXTT10=
EXTT11=
EXTT12=
PLAYORDER=
